<?xml version="1.0" encoding="utf-8"?>
<!-- Generator: Adobe Illustrator 24.1.3, SVG Export Plug-In . SVG Version: 6.00 Build 0)  -->
<svg version="1.1" id="Layer_1" xmlns="http://www.w3.org/2000/svg" xmlns:xlink="http://www.w3.org/1999/xlink" x="0px" y="0px"
	 viewBox="0 0 2551.18 2551.18" style="enable-background:new 0 0 2551.18 2551.18;" xml:space="preserve">
<style type="text/css">
	.st0{fill:#010101;}
</style>
<g>
	<path class="st0" d="M677.07,574.98c24.7-2.88,49.5-5.85,74.2-8.73c0.2,1.49,0.4,2.98,0.5,4.46
		C728.06,577.26,696.52,589.76,677.07,574.98z"/>
	<path class="st0" d="M1330.91,802.15c-8.43,0.5-16.86,0.89-25.3,1.39c-0.1-1.49-0.2-2.88-0.3-4.36c12.8,0.2,24.7-12.7,38.19-0.4
		C1339.34,799.87,1335.08,801.06,1330.91,802.15z"/>
	<path class="st0" d="M1982.86,2086.12c0.2,3.47,1.69,7.74,0.2,10.42c-4.76,8.73-9.72,17.66-16.07,25.2
		c-26.39,31.74-56.25,58.83-97.22,70.73c-1.69,0.5-2.78,3.08-4.17,4.66c-1.09-1.09-2.08-2.18-3.17-3.17
		c26.09-19.05,52.18-38.09,78.27-57.14c-0.89-1.39-1.79-2.78-2.68-4.17c-15.38,7.04-30.75,13.99-46.03,21.03
		c-0.79-1.39-1.49-2.88-2.28-4.27c13.89-8.73,27.68-17.56,42.06-26.59c7.74-18.15,23.41-30.16,41.57-39.78
		C1976.51,2084.03,1979.69,2085.12,1982.86,2086.12z"/>
	<path class="st0" d="M1500.84,1830.87c8.43,0.89,16.96,1.79,26.49,2.68c-24.01,22.82-52.58,37.1-83.73,47.22
		c21.33-14.68,40.67-31.05,57.64-50.39C1501.24,1830.47,1500.84,1830.87,1500.84,1830.87z"/>
	<path class="st0" d="M1471.08,2179.76c-16.37-3.67-32.64-7.84-49.2-10.91c-15.28-2.78-30.95-3.47-46.03-6.65
		c-12.6-2.68-24.6-7.84-38.39-12.4c17.26-8.04,31.94-4.86,47.52,0.5c24.11,8.33,48.91,14.68,73.31,22.32
		c4.56,1.39,8.43,4.86,12.6,7.34C1470.98,2179.86,1471.08,2179.76,1471.08,2179.76z"/>
	<path class="st0" d="M1032.22,2363.98c0.6-2.08,1.09-3.97,1.39-5.16c13.39,3.87,26.69,7.64,40.08,11.51
		c-0.1,1.19-0.1,2.38-0.2,3.47c-18.35,0-36.61,0-57.54,0c2.68-6.84,3.87-9.92,5.06-12.8c-6.25,1.19-13,2.38-19.74,3.57
		c-0.2-1.69-0.3-3.47-0.5-5.16C1011.48,2353.46,1021.7,2352.57,1032.22,2363.98z"/>
	<path class="st0" d="M1470.98,2179.86c19.34,2.78,38.79,5.46,58.13,8.63c1.19,0.2,1.98,3.57,2.88,5.46
		c-4.17,0.79-8.33,2.28-12.4,2.28c-17.86-0.3-34.03-5.85-48.41-16.57C1471.08,2179.76,1470.98,2179.86,1470.98,2179.86z"/>
	<path class="st0" d="M1240.04,2132.34c-18.25-0.99-33.43-1.88-48.51-2.68c0-1.79-0.1-3.47-0.1-5.26
		C1206.61,2127.48,1221,2108.14,1240.04,2132.34z"/>
	<path class="st0" d="M986.09,2106.95c9.42-5.75,23.31,4.66,27.78-10.52c0.1-0.3,3.77-0.2,5.06,0.69c7.14,4.96,7.14,5.06,10.91-0.89
		c5.65,4.76,11.31,9.52,17.96,15.18C1027.65,2109.92,1007.81,2108.54,986.09,2106.95z"/>
	<path class="st0" d="M1114.95,2111.91c3.17-2.48,6.35-4.86,9.42-7.34c0,1.19,0.1,2.48,0.1,3.67c16.96,2.68,33.83,5.26,50.79,7.94
		c-0.2,1.59-0.3,3.17-0.5,4.76c-19.34-1.79-38.69-3.67-58.03-5.46C1116.14,2114.29,1115.55,2113.1,1114.95,2111.91z"/>
	<path class="st0" d="M1498.96,840.94c17.16-7.04,34.42-13.99,51.58-21.03c-15.77,11.11-29.36,28.17-51.88,20.83
		C1498.66,840.74,1498.96,840.94,1498.96,840.94z"/>
	<path class="st0" d="M1982.86,2086.12c-3.17-0.99-6.35-2.08-9.52-3.08c-2.28-1.49-4.46-2.88-6.75-4.36
		c5.85-5.06,11.8-10.02,17.66-15.08l-0.2-0.1c3.47,2.38,6.94,4.76,8.43,5.75C1989.21,2075.1,1986.04,2080.56,1982.86,2086.12z"/>
	<path class="st0" d="M952.95,2350.88c1.19-1.19,2.28-2.28,3.47-3.47c4.96-0.5,10.71-2.98,14.58-1.19
		c6.05,2.78,10.81,8.43,14.78,16.07C974.88,2358.52,963.87,2354.75,952.95,2350.88z"/>
	<path class="st0" d="M1844.68,789.65c0,1.98,0.1,4.07,0.1,6.05c-1.09-0.89-2.18-1.79-3.27-2.78l-0.4-0.2
		C1842.3,791.74,1843.49,790.74,1844.68,789.65z"/>
	<path class="st0" d="M1838.43,796l-0.2-0.2C1838.23,795.9,1838.43,796,1838.43,796z"/>
	<path class="st0" d="M1840.71,795.8c-0.79,0.1-1.59,0.2-2.38,0.3l-0.2-0.2c0.99-0.99,1.98-1.98,2.88-3.08l0.4,0.2
		c0.1,0.99,0.2,2.08,0.3,3.08L1840.71,795.8z"/>
	<path class="st0" d="M1254.43,457.72c-9.32,4.07-17.56,7.74-28.97,12.7c7.94-10.81,13-17.76,17.96-24.6
		C1246,448.6,1249.86,452.76,1254.43,457.72z"/>
	<path class="st0" d="M1501.24,1830.47c-4.07,1.49-8.13,2.78-12.1,4.46c-14.09,5.95-28.77,10.91-41.96,18.35
		c-11.9,6.65-23.11,15.08-32.93,24.5c-9.13,8.73-14.58,19.74-30.06,22.02c-17.56,2.58-33.83,12.4-51.39,16.17
		c-23.61,5.06-47.91,7.44-69.94,13.79c-5.65,4.07-10.91,10.42-17.16,11.61c-30.75,6.15-61.31,1.69-91.76-3.27
		c-4.96-0.79-10.52-0.4-15.48,0.89c-27.88,7.14-55.35,2.48-83.03-2.38c8.53-1.49,17.06-2.98,25.69-4.46c0-1.09,0-2.08-0.1-3.17
		c-7.24-0.99-14.58-2.08-21.82-3.08c-26.69,1.39-53.57,4.36-80.75-3.37c-14.48-4.17-30.26-4.76-43.95-10.42
		c-30.06-12.5-60.22-25.4-88.49-41.37c-28.87-16.27-56.35-35.32-82.83-55.26c-12.9-9.72-22.02-24.4-33.23-36.51
		c-3.37-3.67-8.13-5.95-11.61-9.52c-9.32-9.52-19.25-18.55-27.08-29.17c-17.86-24.11-35.81-48.21-51.29-73.81
		c-10.52-17.26-17.86-36.61-24.9-55.65c-8.63-23.41-15.77-47.42-22.72-71.33c-1.49-5.06-0.89-11.51,0.89-16.57
		c5.16-14.68-8.13-25.1-7.74-38.79c0.5-15.77-0.69-31.74-1.59-47.52c-0.5-8.43-1.98-16.86-2.48-25.4c-0.2-3.37,0.99-6.84,1.49-10.32
		c0.5-4.07,0.79-8.13,1.39-14.88c1.69-0.79,6.55-2.88,10.71-4.76c3.47-26.88,6.94-53.37,10.02-79.96c0.4-3.67-1.39-7.74-2.48-11.51
		c-0.89-3.17,1.09-11.31,3.57-13.19c1.39-0.99,2.78-2.08,5.06-3.77c-4.56-0.6-7.54-0.99-11.01-1.49c0.89-4.56,0.99-9.13,2.48-13.09
		c6.35-16.17,8.13-32.74,7.44-50.2c-0.3-8.04,3.87-16.47,6.94-24.3c15.48-39.28,30.65-78.67,47.22-117.45
		c6.94-16.17,17.36-30.75,25.4-46.53c1.39-2.68-0.5-8.13-2.58-11.21c-10.81-15.57-22.32-30.65-33.23-46.23
		c-3.57-5.16-5.36-11.61-9.03-16.67c-1.19-1.69-8.23-0.89-8.23-1.29c-0.69-23.71-23.31-33.33-32.74-51.19
		c-6.05-11.31-12.7-22.32-18.65-33.73c-0.79-1.59,1.29-4.76,0.79-3.37c-3.87-6.94-6.55-12.1-9.62-17.06
		c-7.44-11.9-13.39-25.2-22.82-35.32c-21.13-22.72-35.42-49.7-51.49-75.69c-16.67-26.98-34.62-53.27-52.08-79.86
		c-0.3-0.4-0.89-0.69-0.99-1.19c-6.55-21.92-26.39-39.58-21.92-64.78c1.49-8.23,5.16-18.65,11.41-23.11
		c25.79-18.55,52.38-36.01,79.86-51.98c6.84-3.97,17.86-0.6,27.58-0.6c0.79-3.67,1.69-7.44,2.18-9.72
		c19.15-5.16,36.9-11.31,55.06-14.38c16.77-2.78,34.13-2.08,51.29-3.17c12.4-0.79,24.8-2.48,37.2-3.08
		c25.1-1.29,50.1-1.88,75.19-3.37c3.47-0.2,6.75-3.57,10.32-5.56c0.2-11.41-3.17-23.21-3.77-34.82
		c-1.98-19.44-3.97-38.89-5.75-58.33c-0.1-0.69,3.27-1.69,3.27-2.48c0-3.17-1.19-6.25-1.19-9.42c0-3.47-0.3-9.42,1.39-10.12
		c9.82-4.27,9.23-11.61,7.74-19.94c-0.3-1.69,0.5-4.27,1.79-5.46c8.04-7.94,9.82-16.77,5.95-23.91c6.45-11.51,13-21.13,17.36-31.74
		c3.08-7.44,4.66-14.58,14.68-14.19c1.19,0,2.68-1.09,3.67-2.08c37.1-39.09,81.25-63.29,136.01-66.76
		c13.59-0.89,26.88-6.15,40.47-8.13c11.61-1.69,23.41-1.69,36.41-2.48c-7.54,15.97,6.55,15.38,13,16.96
		c13.09,3.37,27.18,2.98,40.38,6.05c7.94,1.88,14.88,7.54,22.22,11.51c15.87,8.53,33.83,14.78,47.12,26.29
		c23.21,20.04,43.85,43.25,65.18,65.47c8.23,8.63,34.92,6.45,40.47-2.98c4.17,1.19,8.63,3.97,11.81,2.98
		c21.63-6.84,42.46-7.04,64.78-0.5c11.61,3.37,26.39,7.74,39.38-1.49c2.08-1.49,7.54,1.29,11.31,2.38
		c26.69,8.13,54.26,13,77.87,30.06c10.91,7.94,26.59,9.03,38.29,16.17c16.77,10.22,32.54,22.42,47.62,35.02
		c36.61,30.85,62.4,69.24,76.58,115.17c7.24,23.51,15.08,46.92,21.23,70.83c2.18,8.53,0.4,18.05,0.4,27.18
		c1.59,0.1,3.17,0.2,4.76,0.2c0-5.75,0-11.61,0-17.36c14.29,16.77-1.49,34.22,3.37,51.58c0.99-3.47,1.88-6.94,3.08-11.11
		c9.23,5.06,13.09,9.03,4.76,20.14c-6.75,9.13-8.53,22.12-12,33.53c-2.68,8.83-6.15,14.78-15.67,19.84
		c-7.74,4.07-10.71,17.06-16.67,27.58c1.59,0.2-0.6-0.1-3.17-0.4c8.33,17.86-14.88,16.17-16.96,31.45
		c7.14-3.47,12.5-5.95,17.86-8.53c-7.74,27.88-18.85,53.17-49.6,62.99c-2.48-3.67-2.48-3.67,34.72-43.55
		c-0.69-0.99-1.49-2.08-2.18-3.08c-17.66,13.39-34.13,28.67-53.17,39.58c-16.67,9.62-36.11,14.38-55.06,21.53
		c-0.1-0.1-1.88-2.48-3.87-5.16c-4.86,3.27-9.32,6.25-14.58,9.92c7.34,4.66,13.89,8.93,20.44,13.09l-0.3-0.2
		c27.58,30.16,56.55,59.12,82.34,90.67c19.15,23.51,33.33,50.89,51.39,75.39c21.43,29.17,35.42,61.41,47.32,95.23
		c1.19,3.37,2.38,5.75,2.48,10.02c0.1,5.56,4.17,10.81,5.56,16.47c5.06,19.94,21.13,35.02,23.31,56.74
		c1.79,17.76,10.22,34.72,12.5,52.48c1.49,11.41-1.88,22.12,5.46,34.03c3.97,6.25-3.08,19.34-5.46,30.85
		c-1.69-4.86-2.98-8.43-4.27-12c-0.99,0.1-1.98,0.3-2.98,0.5c0,8.53,0,17.06,0,25.59c-1.98-8.04-3.87-16.07-6.15-25.3
		c-13.39,10.32-2.98-10.81-9.72-9.72c-3.37,6.84-6.35,12.9-9.32,18.85c-0.69,25.59,2.58,52.68,5.16,79.76
		c1.39,14.19,0.99,28.57,2.38,42.86c0.3,3.27-12.7,2.48-1.79,6.65c1.39,0.5,6.45-4.07,6.94-6.84c2.88-15.18-9.92-32.93,7.74-45.83
		c0.2-0.1-0.1-0.89-0.2-1.79c-2.48,0.2-4.96,0.3-7.34,0.5c1.69-14.19,3.27-27.48,4.96-40.67c0.79-0.1,1.69-0.2,2.48-0.3
		c0.5,2.78,0.99,5.56,1.49,8.33c0.99-0.1,2.08-0.2,3.08-0.2c0-8.93,0-17.86,0-26.78c8.73-2.38,9.82,0.79,6.94,8.53
		c-1.19,3.27,0.2,7.54,3.67,11.01c-1.39,4.07-4.66,11.11-3.77,11.71c12,7.74-9.62,29.56,13.99,32.14c0,21.43,4.76,44.74-1.49,64.38
		c-5.26,16.47-8.83,32.44-11.21,49.3c-2.58,18.45-7.64,36.61-9.72,55.06c-2.88,25.1-16.96,46.62-21.63,70.63
		c-4.46,22.92-25.89,34.22-32.04,55.35c-1.19,4.17-10.42,5.95-18.55,10.22c5.65,1.98,7.94,2.78,15.48,5.46
		c-15.48,11.9-28.67,21.73-41.47,32.14c-6.25,5.16-12.1,10.91-17.46,17.06c-9.03,10.32-17.46,21.23-24.6,29.96
		c-5.56-4.36-9.13-8.43-10.12-7.84c-8.04,4.66-15.57,10.12-22.22,17.46c3.17-1.39,6.45-2.78,10.42-4.56
		c-0.5,18.65-19.44,18.95-27.88,29.17c-3.97,4.86-9.13,8.73-13.29,13.49c-3.77,4.36-6.84,9.33-10.22,14.09L1501.24,1830.47z
		 M1589.83,1173.76c2.28,8.43,4.66,16.86,7.14,25.99c1.29-3.27,2.18-5.75,2.78-7.24c3.17,9.92,6.45,19.94,9.72,30.06
		c1.88-0.6,3.77-1.19,5.65-1.79c0-19.25-0.6-38.39-16.37-53.57c1.59-10.71,3.08-21.53,4.66-32.24c-1.79-2.28-3.57-4.56-5.36-6.84
		c-2.08,19.94-11.51,7.34-22.52,12c8.93,3.67,14.09,5.75,19.34,7.84c0.89,14.88,0.89,14.88-8.04,15.87
		C1587.65,1167.21,1588.74,1170.49,1589.83,1173.76z M724.29,1249.05c-2.68,1.49-6.84,2.38-7.74,4.56
		c-2.58,6.75-2.68,14.58-5.85,21.03c-4.17,8.53-2.08,18.05-5.75,26.59c-0.79,1.79-2.48,16.47-2.58,18.65
		c-0.4,11.31-0.2,22.62-0.2,34.03c1.49,0,2.98-0.1,4.46-0.1c5.85-34.92,11.61-69.84,17.46-104.76c3.08-13.49,6.15-26.98,10.12-44.34
		c-8.73,9.92-13.09,16.67-11.51,25.99C723.8,1236.75,723.8,1242.9,724.29,1249.05z M1405.21,1846.64
		c-0.4-8.13-2.08-16.07,10.81-16.77c3.57-0.2,6.65-8.73,11.51-15.67c-15.67,7.24-27.97,12.3-39.58,18.65
		c-3.27,1.79-4.36,7.34-6.55,11.21c0.99,0.6,1.98,1.09,2.98,1.69c3.08-1.69,6.15-3.27,12.2-6.55c-3.97,5.46-5.65,7.84-7.44,10.22
		c-13.59,6.75-27.08,13.49-39.78,19.84c3.47,2.88,7.34,6.15,8.53,7.04c32.64-1.49,54.46-22.62,79.16-38.69
		C1426.54,1840.59,1415.93,1843.57,1405.21,1846.64z M1343.51,798.68c10.22-6.55,19.84-14.19,30.65-19.25
		c14.29-6.75,29.46-12,44.44-17.16c38.99-13.49,59.32-45.83,80.45-77.77c1.19,0.6,2.38,1.19,3.47,1.79
		c-6.05,11.01-12.2,21.92-18.25,32.93c17.16-15.28,17.06-15.38,19.25-43.55c0.2-1.98,2.28-3.87,3.37-5.85
		c4.07-7.44,8.33-14.78,11.81-22.52c0.69-1.59-1.49-4.66-2.68-6.84c-0.89-1.59-3.47-2.88-3.27-4.07c1.09-8.23,3.08-16.37,3.97-24.6
		c1.59-14.48,2.58-29.07,3.67-41.27c3.47-1.19,9.52-2.68,9.52-3.27c-1.09-7.24-2.48-14.68-4.96-21.53
		c-1.29-3.67-6.35-6.05-7.34-9.62c-4.66-16.86-6.84-34.62-13.09-50.79c-10.02-25.79-20.53-52.18-43.05-70.33
		c-12.8-10.32-26.19-22.22-41.37-26.78c-36.9-11.31-90.67,2.58-120.93,26.69c-3.27,2.68-12.6,2.68-12.6,3.97
		c0,20.24-22.62-2.08-24.5,13.29c-0.4-0.3-0.79-0.69-1.29-1.09c0.4-2.08,0.79-4.17,1.59-8.13c-13.39,9.42-28.67,15.67-36.41,26.98
		c-9.23,13.49-19.64,29.66-13.09,50.1c3.57-5.65,6.35-10.12,9.13-14.58c2.38-3.97,4.66-8.04,7.04-12c1.39,0.69,2.78,1.29,4.17,1.98
		c-16.07,22.12-23.61,45.73-12.8,72.12c9.42,23.01,19.25,45.93,27.97,66.76c-7.64,3.67-15.97,7.74-24.7,12
		c1.19,2.08,2.18,4.07,4.66,8.43c-7.24-3.08-11.51-4.86-16.47-6.94c0.2,3.37,0.4,5.65,0.4,6.94
		c-72.81-37.7-154.06-33.03-230.15-49.5c2.28-13.49,12.8-10.91,21.63-10.12c16.67,1.49,33.43,2.98,49.9,6.05
		c29.46,5.56,58.63,12.5,87.89,18.55c7.44,1.59,15.18,1.98,22.72,2.98c0-1.49,0-2.88,0-4.36c-18.25-5.75-36.31-12.7-54.96-17.16
		c-25.79-6.15-52.08-10.02-77.87-15.97c-16.96-3.87-32.04-16.67-51.29-10.32c-5.56,1.79-11.51,2.18-19.25,3.57
		c2.68-3.67,3.97-5.36,4.27-5.75c-15.38,0-31.45,0.1-47.42,0c-29.76-0.3-59.52-1.49-89.28-0.89c-20.73,0.4-42.06,7.14-61.8,3.47
		c-27.18-4.96-55.06,5.46-81.54-6.15c-6.15-2.68-14.98-1.88-21.82-0.1c-6.75,1.79-12.5,6.94-17.36,9.72
		c-7.14-0.69-14.68-3.08-21.73-1.88c-11.9,1.88-24.01,4.86-35.02,9.62c-6.35,2.68-11.21,9.52-16.07,14.98
		c-2.68,2.98-4.17,7.04-6.15,10.61c1.49-3.27,2.98-6.65,4.46-9.92c2.88,5.36,5.75,10.61,8.53,15.97c-0.99,0.99-1.98,1.98-3.08,3.08
		c0.79-1.98,1.69-4.07,3.57-8.63c1.09,6.84,1.69,11.11,2.28,14.98c3.27-1.19,6.45-2.58,9.72-3.57c0.5-0.2,1.49,1.19,2.28,1.88
		c-15.77,8.83-16.07,9.62-4.96,25.79c16.47,23.81,33.53,47.12,49.7,71.03c24.7,36.41,49.5,72.81,72.91,110.01
		c11.31,18.05,22.02,35.71,37.8,50.79c11.21,10.71,21.53,25.79,24.5,40.57c2.58,12.6,12.2,19.44,15.38,30.75
		c2.08,7.34,10.52,13,15.87,19.05c-0.89,1.39,0.2-0.3,1.49-2.28c5.95,15.38,10.32,30.95,17.96,44.84
		c6.55,12.1,4.96,21.33-2.18,31.74c-7.04,10.22-6.55,18.95-1.19,31.65c4.46,10.52-0.69,27.48-6.84,38.69
		c-2.18,3.97-12.2,4.27-6.84,13.69c-10.81-1.59-19.44,4.27-22.42,12.7c-2.68,7.54,0.5,17.16,1.09,25.89
		c0.89-0.4,1.79-0.79,2.78-1.19c4.66,6.55,0.5,12.1-2.58,17.36c-3.47,6.05-9.23,11.11-11.41,17.56
		c-8.04,23.31-16.07,46.72-22.32,70.53c-8.04,30.85-15.67,61.9-20.93,93.25c-3.57,21.43-3.17,43.65-3.87,65.47
		c-0.4,12.6,8.04,22.42,12.3,33.43c7.84,20.63,10.22,43.35,15.48,64.98c6.45,26.09,11.51,52.68,20.93,77.67
		c11.8,31.45,25.99,62.4,42.06,91.96c7.64,13.99,12.7,33.73,35.02,34.82c2.28,0.1,4.36,4.07,6.65,6.15
		c5.36,4.66,10.32,9.72,16.17,13.69c41.17,28.17,89.78,36.11,136.4,48.51c33.33,8.83,67.26,15.67,102.48,17.26
		c24.8,1.19,48.81-0.99,73.21-2.48c26.29-1.69,50.59-19.34,79.16-8.13c-3.08-3.37-4.96-5.56-5.56-6.15
		c7.84-1.98,15.38-4.86,23.21-5.65c19.74-1.98,34.92-18.55,56.15-16.27c6.05,0.6,13.29-2.28,18.75-5.65
		c15.57-9.62,34.03-10.81,50.3-22.32c15.97-11.31,32.14-24.11,45.73-36.7c26.59-24.6,52.78-51.68,68.15-85.71
		c13.09-28.77,32.64-54.36,40.57-85.71c2.08-8.33,8.63-15.57,13-23.31c-1.98,0.5-4.07,1.09-4.76,1.29
		c2.48-8.73,2.58-19.54,8.04-25.59c9.52-10.61-2.28-19.54,0.79-29.66c3.97-12.7,4.27-26.59,6.45-39.98
		c0.6-3.77,2.48-7.34,3.87-10.91c1.49-4.07,3.87-8.04,4.46-12.3c3.87-25.69-0.2-50.69-5.16-75.89
		c-6.05-30.75-10.42-61.9-16.47-92.75c-3.97-20.63-9.82-40.87-14.38-61.31c-9.42-42.26-23.91-82.63-46.92-119.34
		c-15.67-25.1-34.42-48.21-51.39-72.42c-29.76-42.46-60.61-84.22-99.5-119.04c-12.6-11.21-20.04-29.76-39.18-29.66
		c2.28-5.26,4.27-9.72,6.15-14.19C1335.08,801.06,1339.34,799.87,1343.51,798.68z M1165.44,352.97
		c-13.99-19.84-24.6-40.08-40.08-55.35c-13.99-13.79-32.04-26.98-50.49-32.04c-25.99-7.14-52.28,2.98-75.79,15.48
		c-17.56,9.32-32.54,25.59-50.99,30.65c-15.77,4.27-22.62,14.68-32.34,23.91c-1.39,1.39-1.29,4.76-1.19,7.24
		c0.1,3.27,2.28,7.34,0.99,9.52c-9.32,15.48-19.54,30.45-29.07,45.83c-3.08,4.96-6.75,10.32-7.54,15.87
		c-1.98,13.19-1.69,26.78-3.57,39.98c-2.78,19.25-0.6,23.01,18.25,25.4c10.71,1.39,21.53,1.49,32.04,3.67
		c4.46,0.89,8.13,8.04,12.3,8.23c7.14,0.3,13.49,0.1,20.83,2.98c8.43,3.47,18.75,2.08,28.07,3.57
		c37.8,5.75,75.59,11.71,114.48,17.76c-7.64-68.65,31.65-118.65,77.48-167.95C1172.09,350.19,1168.12,351.88,1165.44,352.97z
		 M1095.21,252.08c-4.46-4.27-6.45-7.64-9.32-8.63c-18.15-6.45-36.9,0.6-56.25-3.17c-15.38-2.98-33.93,10.32-51.09,16.37
		c0.2,1.69,0.4,3.47,0.5,5.16C1016.44,250.59,1054.44,252.18,1095.21,252.08z M1577.73,1102.73c1.49-1.79,5.16-4.46,4.76-5.75
		c-4.56-13.59-9.62-27.08-15.18-40.18c-0.89-1.98-5.36-2.48-8.13-3.67c-0.69,1.88-2.38,3.97-1.98,5.46
		c5.65,21.63,11.61,43.15,17.36,64.68c2.48,9.33,6.94,14.19,19.84,7.84c-4.17-6.15-8.13-11.9-12.3-17.96
		c2.08,0.2,4.36,0.4,6.75,0.69c0.5-0.89,0.89-1.79,1.39-2.58C1586.36,1108.49,1582.49,1105.91,1577.73,1102.73z M1008.21,1879.98
		c-27.38-8.23-54.86-16.37-82.24-24.6C951.27,1870.85,977.66,1882.26,1008.21,1879.98z M1013.07,1910.93
		c-28.07-9.03-54.76-17.56-81.44-26.09c-0.4,1.39-0.79,2.78-1.19,4.17C956.72,1898.72,981.72,1913.31,1013.07,1910.93z
		 M1378.33,362.09c-33.03-9.62-53.47-13-60.51,0C1337.06,362.09,1357.5,362.09,1378.33,362.09z M1189.55,1830.87
		c0-0.4,0.1-0.79,0.1-1.19c-17.46-3.77-35.02-7.64-52.48-11.41c-0.3,1.09-0.6,2.18-0.89,3.27c5.65,1.79,11.31,3.57,16.96,5.36
		c-1.98,1.39-2.98,2.18-5.46,3.97C1163.16,1830.87,1176.36,1830.87,1189.55,1830.87z M866.55,1857.66c0.79-1.39,1.59-2.88,2.38-4.27
		c-13.99-8.04-27.88-16.17-41.86-24.21c-0.89,1.59-1.69,3.08-2.58,4.66C838.58,1841.68,852.56,1849.72,866.55,1857.66z"/>
	<path class="st0" d="M1109.99,730.83c4.07,21.03,7.14,36.61,10.12,52.18c-0.89,0.4-1.79,0.69-2.68,1.09
		c-0.99-1.49-1.88-2.98-3.47-5.46c-9.03,29.56-40.57,31.74-57.93,49.4c4.86,6.75,9.72,13.49,16.07,22.22
		c-8.63-2.98-14.38-4.96-20.24-6.94c-0.99,2.38-1.88,4.86-2.88,7.24c-4.46-20.93-18.05-14.58-30.65-15.08
		c-31.55-1.09-62.3-8.83-89.18-25c-12.5-7.44-20.24-22.82-30.06-34.42c4.07-2.88,8.13-5.85,12.6-9.03
		c-0.89-3.77-1.79-7.94-3.17-14.09c-1.09,4.86-1.79,7.74-2.48,10.71c-16.86-20.63,1.49-72.71,36.41-103.27
		c-6.15-7.34-10.32-17.26-0.5-22.52c6.25-3.27,19.15-2.38,24.21,2.18c6.55,5.95,8.43,9.33,19.54,7.14
		c12.5-2.48,28.27,1.69,40.18,7.74c25.99,13.39,54.46,24.21,71.92,50.2c1.49,2.18,5.56,4.66,7.44,3.97
		c12.7-4.27,20.34,2.08,27.18,11.21c0.69,0.89,3.87-0.3,4.96,0.6c3.17,2.68,5.95,5.95,8.83,9.03c-3.47,0.3-6.94,0.79-10.32,0.79
		C1127.45,730.92,1119.12,730.83,1109.99,730.83z M1064.46,720.01c-2.38-6.75-3.67-11.01-5.36-14.98
		c-1.49-3.57-2.58-8.04-5.36-10.12c-6.45-4.76-13.89-8.13-20.73-12.4c-7.04-4.36-13.39-10.61-21.03-13.19
		c-14.29-4.76-25.79,3.47-21.53,15.28c5.36,14.88,13.79,28.67,21.73,42.46c1.49,2.58,7.34,4.56,10.52,3.87
		C1036.28,728.15,1049.58,724.08,1064.46,720.01z M991.15,769.71c-13.89,11.41-34.72,6.25-44.64,24.5
		c18.25,18.55,40.28,21.82,66.37,19.25C1005.33,798.38,998.79,785.19,991.15,769.71z M1031.82,764.95
		c5.46,12.7,9.82,22.72,13.79,32.04c13.19-11.8,32.24-20.34,25.99-43.55C1058.01,757.31,1045.31,760.98,1031.82,764.95z
		 M947.2,716.64c12.7,12.7-7.24,23.61,1.19,37c8.04-2.18,18.65-5.06,30.16-8.13c-7.54-15.18-14.38-28.87-21.92-43.95
		C952.06,708.9,949.18,713.47,947.2,716.64z"/>
	<path class="st0" d="M952.95,2350.88c-30.06-1.88-56.64-13.99-82.24-28.47c-3.67-2.08-3.77-9.62-7.34-12.7
		c-4.66-3.97-11.11-5.95-16.77-8.83c-2.08-1.09-5.16-1.69-6.05-3.47c-5.65-11.01-14.98-12.7-26.09-11.8
		c-17.76,1.49-31.84-9.82-45.63-17.46c-45.93-25.3-80.75-62.99-110.21-106.15c-15.38-22.52-6.84-44.14-1.09-66.27
		c2.28-8.53,5.36-17.36,10.02-24.7c11.11-17.36,25.1-32.04,42.76-43.25c22.32-14.19,45.83-25.79,71.43-32.14
		c8.13-1.98,17.26,0.89,25.89,0.2c11.41-0.89,22.62-4.27,33.93-4.66c30.85-1.09,61.6-1.29,92.46-1.69
		c10.71-0.1,21.63-0.4,32.24,0.79c22.42,2.68,44.74,6.35,66.37,9.52c0.3,0.89,1.39,5.36,2.08,5.26c33.93-2.68,68.25,0,100.09,9.03
		c18.85,5.36,37.2,0.69,55.35,7.14c17.96,6.45,37.9,7.44,56.25,13.19c30.55,9.52,60.31,21.73,90.77,31.45
		c23.61,7.54,47.52,14.88,71.82,18.95c20.24,3.37,39.09,12.1,59.42,13.69c26.88,2.08,53.87,4.76,80.85,4.36
		c31.25-0.5,62.5-3.67,93.75-6.75c23.91-2.38,47.82-5.85,71.62-9.62c31.15-4.86,56.45-22.42,81.54-39.68
		c43.85-30.06,63.79-76.09,80.45-123.7c4.07-11.71,3.77-24.9,5.65-37.4c0.4-2.68,1.49-5.46,3.08-7.64c3.97-5.36,2.28-4.07-1.49-9.72
		c-3.27-5.06-4.76-14.98-1.98-19.54c5.26-8.43,4.27-16.37,2.18-24.11c-5.65-20.93-10.22-42.66-19.44-62.1
		c-7.74-16.27-21.33-29.76-32.54-44.34c-1.29-1.69-4.96-3.87-5.46-3.47c-8.43,7.24-18.15-0.6-27.58,2.78
		c-5.65,2.08-13.89-4.46-21.13-5.16c-10.71-0.99-21.63-0.3-33.93-0.3c1.49-3.27,2.68-6.05,4.46-10.32
		c-15.28-3.17-26.09-20.63-43.75-13.79c-7.14,2.78-11.51,1.79-18.35,1.09c-10.71-1.09-11.8-6.55-10.91-12.5
		c0.79-5.65,4.76-12.4,9.42-15.28c4.86-2.98,11.21-0.3,11.51-10.91c0.1-4.36,13.89-9.52,22.12-12.4c25.2-8.63,50.39-6.55,76.58-1.39
		c27.58,5.56,51.19,15.97,74.2,32.24c20.63,14.58,45.83,22.62,68.65,34.32c5.95,3.08,9.72,9.82,15.48,13.59
		c31.84,21.03,49.7,51.98,59.42,87.3c5.95,21.53,2.18,46.43,11.11,66.07c11.81,25.99,4.07,52.08,9.33,77.48
		c1.59,7.64,0.4,16.47-1.88,24.11c-6.15,19.84-13.19,39.58-20.93,58.83c-4.17,10.32-10.12,19.94-16.27,29.26
		c-1.49,2.38-6.65,2.38-10.12,3.47l0.2,0.1c4.07-8.73,8.83-17.26,11.9-26.39c2.58-7.54,3.08-15.67,4.66-24.5
		c2.68,1.79,5.46,3.57,8.83,5.65c5.36-26.19,10.61-51.98,15.97-77.87c-2.78-0.89-5.46-1.69-8.23-2.58
		c-8.23,23.61-16.37,47.22-24.8,71.33c-4.17-2.28-6.55-3.67-8.93-4.96c-9.23,15.48-17.86,30.65-27.18,45.43
		c-11.41,18.15-24.4,35.02-43.55,45.83c-19.64,11.11-39.28,22.12-58.73,33.63c-8.33,4.86-16.37,10.32-24.01,16.37
		c-2.48,1.98-2.98,6.45-6.15,13.69c-2.68-3.87-4.46-6.35-6.55-9.32c-9.42,11.11-22.32,14.88-37.7,16.86
		c-29.76,3.77-59.12,10.42-88.59,15.97c-2.98,0.59-5.85,1.59-8.83,1.88c-37.99,3.87-76.19,5.16-113.78-1.39
		c-36.9-6.45-73.41-15.18-109.92-24.01c-26.88-6.45-53.47-14.48-80.15-21.92c-16.57-4.56-33.33-8.53-49.5-14.28
		c-29.56-10.52-60.81-12.2-90.87-19.25c-15.08-3.57-28.97-6.35-44.54-5.56c-11.51,0.6-23.11-4.17-34.82-6.05
		c-7.24-1.19-14.98-0.1-22.02-1.98c-45.93-12.3-93.15-14.98-140.17-18.75c-22.42-1.79-45.34-2.68-67.46,0.3
		c-14.58,1.88-27.68,13.99-42.36,16.86c-27.18,5.26-44.54,27.68-68.25,36.21c-16.07,5.75-18.85,15.87-20.34,26.29
		c-1.59,11.61-0.1,25.99,5.65,35.81c18.95,32.14,46.03,53.27,85.51,56.84c34.92,3.17,69.64,9.03,104.26,14.88
		c21.82,3.67,43.15,10.12,64.88,14.09c9.32,1.69,19.25,0.3,28.87,0.3c0.2,1.49,0.4,2.88,0.6,4.36c-3.17,1.19-6.45,2.38-11.31,4.27
		c14.98,5.06,28.97,9.72,44.05,14.78c-1.88,2.28-4.07,4.86-5.56,6.55c18.45,7.64,37.7,14.38,55.65,23.61
		c10.22,5.26,4.56,10.71-3.37,12.7c6.75,4.07,13.39,8.04,20.83,12.5c-69.94,7.84-137.99-4.17-207.13-12.8
		c1.88-4.27,2.88-6.55,3.17-7.24c-36.31-8.33-72.71-16.67-109.02-24.8c-0.5-0.1-1.49,2.28-4.36,6.75
		c21.03,7.34,40.97,14.29,60.81,21.43c2.28,0.79,4.07,3.17,6.45,4.07c1.98,0.69,4.46,0.1,6.55,0.5c4.76,0.99,13-3.08,11.41,7.54
		C955.24,2348.6,954.05,2349.79,952.95,2350.88z M757.33,2019.75c-20.04-5.36-24.11,12.1-35.81,16.37c1.09,1.79,2.18,3.57,3.27,5.46
		C735.01,2034.73,745.23,2027.88,757.33,2019.75z"/>
	<path class="st0" d="M1746.07,1133.48c1.98-0.79,3.87-1.69,5.85-2.48c0.79,0.69,1.59,1.39,2.38,2.08c0.2-0.69,0.4-1.49,0.6-2.18
		c0.4-0.79,0.6-1.69,0.6-2.68c9.62-1.29,19.25-2.58,32.54-4.46c-5.95-2.08-7.74-2.78-9.72-3.37c3.77-2.68,7.34-5.06,10.91-7.54
		c7.04-3.17,13.99-6.25,21.03-9.42c1.39,5.46,2.78,10.91,3.97,15.57c7.34-3.47,14.48-5.75,20.24-9.92c3.67-2.68,5.26-8.13,7.54-12.5
		c0.2-0.5-2.28-3.08-2.48-2.98c-2.78,1.69-5.06,4.36-7.94,5.36c-5.65,1.98-11.61,2.98-17.46,4.46c3.37-3.67,6.84-7.34,10.22-11.01
		c-0.6-0.89-1.19-1.88-1.88-2.78c-11.11,5.46-22.32,10.91-33.43,16.37c-10.22,4.07-20.53,8.23-30.75,12.3
		c-6.94,2.48-13.89,4.86-18.95,6.75c1.29-4.86,2.58-9.62,3.47-13.09c-8.93,2.68-15.57,5.46-22.42,6.45
		c-3.87,0.6-8.13-1.79-12.2-2.88c3.27-2.08,6.55-4.17,9.92-6.15c4.46-2.58,8.93-5.16,12.3-10.81c-6.65,0-13.39,0-18.45,0
		c-1.59-7.74-3.17-15.48-5.06-24.9c-4.56,1.29-10.52,3.08-16.47,4.76c-4.76-19.84,3.87-32.04,25.89-38.89
		c27.97-8.73,55.75-18.25,84.32-30.85c-8.43-3.27-16.96-6.35-25.3-10.02c-6.94-3.17-14.19-6.25-20.14-10.81
		c-22.72-17.56-47.02-33.63-66.96-53.97c-32.44-33.13-37.7-96.32-11.01-132.53c19.84-26.88,34.72-58.73,65.18-76.78
		c18.05-10.71,35.02-21.63,58.23-22.52c9.82-0.4,20.53-0.5,30.75-1.39c19.25-1.69,34.32,6.35,48.61,18.25
		c5.36,4.46,13.69,5.26,20.53,7.94c9.62,3.77,19.15,7.54,28.67,11.51c19.05,8.04,37.99,15.38,54.16,29.66
		c22.52,19.94,40.57,42.06,47.32,71.82c0.89,3.77-1.88,8.33,0.4,12.3c0.6,8.23,1.09,16.57,1.88,27.38
		c-4.66-3.08-6.65-4.46-9.03-6.05c-0.2,1.59-0.99,3.27-0.5,4.36c3.57,7.04,8.63,13.49,10.81,20.93c1.19,3.97-0.89,11.9-3.87,13.59
		c-8.83,4.86-9.13,9.62-6.84,18.95c2.88,11.71,13.89,24.21-2.68,36.8c-5.95,4.56-4.56,18.65-6.84,30.16
		c18.65,10.12,38.89,19.74,57.74,31.55c36.01,22.52,75.1,40.77,104.86,72.32c15.38,16.27,31.45,31.94,45.14,49.5
		c7.14,9.13,9.92,21.63,14.88,32.93c-4.17,1.88-8.43,3.77-12.5,5.65c0.99,6.25,1.79,11.9,2.68,17.46c0.79,0,1.59,0,2.38,0
		c0.89-5.85,1.79-11.61,2.68-17.46c0.89,0.1,1.88,0.3,2.78,0.4c0,7.14-0.79,14.48,0.2,21.53c1.19,8.83,5.46,17.36,5.46,25.99
		c0.1,15.57,7.84,33.43-10.81,45.04c-3.17,1.98-4.66,6.75-6.94,10.32c4.66-10.71,9.42-21.33,14.29-32.54
		c-2.88-1.19-6.35-2.68-9.03-3.77c-0.79,4.27-0.4,9.13-2.38,10.52c-5.26,3.67-11.51,5.85-17.36,8.63c-0.2,2.98-0.69,8.53-1.19,14.09
		c-9.82,5.36-20.34,9.72-29.26,16.37c-14.78,11.01-27.08,25.89-42.95,34.62c-11.9,6.55-27.58,7.24-41.66,8.63
		c-11.71,1.19-21.73,2.78-24.11,12.6c-13.49-1.79-26.59-1.88-38.69-5.36c-23.21-6.55-45.63-14.58-64.48-31.35
		c-14.68-13.09-33.83-21.33-48.01-34.82c-30.65-29.26-51.68-64.98-61.21-106.84c-1.49-6.65-4.36-13-7.34-21.73
		c1.39-0.2-0.79,0.1-2.88,0.4c-0.6-6.25-1.29-12.8-2.28-22.32c-10.42,4.86-18.25,9.03-26.39,12.3
		c-19.74,8.13-39.28,17.36-59.82,23.21c-8.73,2.48-20.53-0.4-27.78-9.03c-1.09-1.29,0.89-7.74,1.79-7.74
		c13.99-0.89,15.28-8.43,10.61-19.34c0.3-1.98,0.5-3.97,0.79-5.85l-0.2,0.2C1744.09,1134.18,1745.08,1133.88,1746.07,1133.48z
		 M1838.23,795.9l0.2,0.2c0.79-0.1,1.59-0.2,2.38-0.3c-0.89,3.67-0.69,8.43-2.98,10.91c-8.13,9.23-17.56,17.36-25.59,26.78
		c-14.48,16.86-16.27,36.31-9.42,56.84c-3.27,0-6.15,0-9.23,0c4.17,6.55,7.34,11.71,10.61,16.77c2.38-12.9,25.2-21.03,8.73-35.12
		c6.65-8.63,13.19-17.26,20.93-27.28c-1.59,6.94-2.98,12.6-4.27,18.15c11.01-7.44,18.45-17.66,27.88-25.2
		c9.62-7.64,21.33-12.7,31.55-18.55c-1.98-7.84-2.88-15.48-5.75-22.32c-2.68-6.35-7.84-11.61-11.01-17.86
		c-3.97-7.94-9.92-9.03-17.46-6.65c-8.63,2.68-12.1,8.53-10.02,17.46c-1.19,0.99-2.38,2.08-3.57,3.08
		C1840.21,793.82,1839.22,794.81,1838.23,795.9z M1998.24,1105.91c1.09-6.75,2.08-13.39,3.17-20.24c-6.75,0-12,0-18.35,0
		c-2.38,10.81-4.76,22.02-7.34,33.83c0.6,0-2.08,0-4.96,0c2.58,7.84,4.86,14.88,7.94,24.4c2.88-5.16,5.56-8.13,6.05-11.51
		c0.5-3.37-1.19-6.94-1.88-10.52c2.88-0.1,5.75-0.1,8.63-0.2c0.99,1.79,2.98,3.57,2.78,5.26c-1.39,17.96-3.77,35.91-4.27,53.97
		c-0.1,4.36,5.36,8.93,9.42,15.18c0,3.37-1.29,10.52,0.3,16.86c2.28,9.03,7.94,17.26,9.92,26.29c4.56,20.44,18.95,28.27,36.31,17.86
		c26.29-15.87,39.48-40.47,44.64-70.04c0.1-0.4,1.19-0.69,1.89-0.99c0.69,2.28,1.29,4.66,1.98,6.94
		c0.5-20.53,8.13-42.26-10.32-59.72c-2.08-1.98-1.19-7.04-1.69-10.71c1.69-0.99,3.47-1.98,5.16-2.98
		c-16.96-11.01-34.03-21.92-50.89-33.13c-1.29-0.79-0.79-3.97-1.88-5.36c-2.48-2.88-5.56-5.26-8.33-7.94
		c0.89,3.57,1.88,7.24,2.78,10.91c-5.75,0.3-11.8,0.6-19.54,0.99c0.89,5.85,1.69,11.01,2.48,16.17
		C2007.86,1102.83,2003.1,1104.42,1998.24,1105.91z M1888.42,826.95c-30.06,13.49-63.39,51.29-70.14,81.54
		c-2.38,10.52-5.36,25.79,0,31.94c6.15,6.94,12.2,20.73,28.47,17.36c6.65-1.39,15.28,7.64,26.29,13.59
		c7.54-1.49,13.69-8.63,14.98-22.02c2.48-25.79,6.05-51.49,10.52-76.98C1901.42,855.92,1903.21,840.44,1888.42,826.95z
		 M1862.23,1157.09c-4.96,8.93-4.76,9.42,15.48,35.51c0.69-1.69,1.39-3.37,2.08-5.16c0.89,0.2,1.79,0.5,2.68,0.69
		c-0.2,3.87-0.5,7.74-0.79,13c7.54-8.53,3.97-26.19-4.46-29.07C1865.51,1168.2,1865.51,1168.2,1862.23,1157.09z M2188.41,1202.23
		c10.52-18.05,5.36-38.29-12.7-50.69C2179.98,1168.9,2183.85,1184.28,2188.41,1202.23z M2014.71,865.74c-0.6,0.2-1.09,0.5-1.69,0.69
		c-2.88,10.52-6.35,20.93-8.13,31.65c-0.5,2.78,4.66,6.55,7.24,9.82c1.69-0.99,3.37-1.88,5.06-2.88
		C2016.39,891.93,2015.5,878.83,2014.71,865.74z"/>
</g>
</svg>
